# File created by Blade
# Date/Time:  Tue Apr 07 20:45:22 2015
# Frame Rate: 120.000 fps
#------------------------------------------------------
:FULLY-SPECIFIED
:DEGREES
235
root 4.288054 32.318227 -6.923188 -0.101395 -9.100426 -12.259231
Spine 38.133599 13.421002 17.085130
Head -32.419427 -6.274246 9.170828
LeftShoulder -18.883189 39.992997 10.246365
LeftArm 58.206091 5.670978 -79.360556
LeftForeArm 1.639180 -0.000000 29.022807
LeftHand 6.857955 -0.000000 10.315116
LeftHandThumb1 -26.253704 0.000000 33.147579
RightShoulder 12.338729 10.372432 -12.822473
RightArm 27.507279 20.240364 91.003659
RightForeArm 86.575771 0.000000 -1.694443
RightHand 3.330948 -0.000000 22.518662
RightHandThumb1 -24.326973 -0.000000 -32.862282
LeftUpLeg -15.197261 -3.469683 4.844087
LeftLeg 28.329931 -0.000000 -0.000000
LeftFoot -11.168271 19.285734 -4.119558
LeftToeBase -14.185194 -0.000000 0.000000
RightUpLeg -127.651787 -22.248677 27.399063
RightLeg 105.031542 -0.000000 -0.000000
RightFoot 40.603332 -5.322274 10.169395
RightToeBase 13.377859 -0.000000 -0.000000
236
root 4.290230 32.318426 -6.928923 -0.156675 -9.137067 -12.335368
Spine 38.501987 13.520984 17.250658
Head -32.991632 -6.225880 9.169243
LeftShoulder -18.935663 39.920360 10.146669
LeftArm 58.225967 5.843244 -79.256054
LeftForeArm 1.626851 -0.000000 28.900082
LeftHand 6.777862 -0.000000 10.254594
LeftHandThumb1 -26.253704 0.000000 33.147579
RightShoulder 12.379723 10.203775 -12.798158
RightArm 27.398204 20.965815 90.340131
RightForeArm 86.609564 -0.000000 -1.122263
RightHand 2.910742 -0.000000 24.186966
RightHandThumb1 -24.326973 -0.000000 -32.862282
LeftUpLeg -15.179904 -3.498541 4.914094
LeftLeg 28.415914 -0.000000 -0.000000
LeftFoot -11.148557 19.311171 -4.174637
LeftToeBase -14.301199 -0.000000 0.000000
RightUpLeg -128.039616 -21.992484 27.505127
RightLeg 105.394718 -0.000000 -0.000000
RightFoot 40.835384 -5.391236 10.248601
RightToeBase 13.505485 -0.000000 -0.000000
237
root 4.292398 32.318876 -6.937722 -0.193371 -9.207357 -12.414444
Spine 38.871938 13.639235 17.413552
Head -33.572488 -6.162922 9.190047
LeftShoulder -19.012244 39.842188 10.027004
LeftArm 58.232859 6.015491 -79.118866
LeftForeArm 1.663920 -0.000000 28.806035
LeftHand 6.821065 0.000000 10.216529
LeftHandThumb1 -26.253704 0.000000 33.147579
RightShoulder 12.382682 10.077434 -12.803881
RightArm 27.311317 21.701772 89.743749
RightForeArm 86.441356 -0.000000 -0.534688
RightHand 2.532747 -0.000000 25.731705
RightHandThumb1 -24.326973 -0.000000 -32.862282
LeftUpLeg -15.180957 -3.502568 4.996210
LeftLeg 28.508049 -0.000000 -0.000000
LeftFoot -11.139437 19.318146 -4.209858
LeftToeBase -14.424418 -0.000000 0.000000
RightUpLeg -128.371061 -21.702378 27.568140
RightLeg 105.733916 -0.000000 -0.000000
RightFoot 41.094853 -5.322865 10.193525
RightToeBase 13.621419 -0.000000 -0.000000
238
root 4.293451 32.319612 -6.946658 -0.226319 -9.300881 -12.500713
Spine 39.221092 13.753226 17.554615
Head -34.098537 -6.075013 9.225933
LeftShoulder -19.094641 39.786735 9.924843
LeftArm 58.232210 6.186108 -79.029923
LeftForeArm 1.636443 0.000000 28.730878
LeftHand 6.781590 -0.000000 10.140245
LeftHandThumb1 -26.253704 0.000000 33.147579
RightShoulder 12.381222 9.910919 -12.790869
RightArm 27.255842 22.336663 89.128499
RightForeArm 86.130142 -0.000000 0.173160
RightHand 2.167874 -0.000000 27.168949
RightHandThumb1 -24.326973 -0.000000 -32.862282
LeftUpLeg -15.183420 -3.456519 5.087652
LeftLeg 28.608797 -0.000000 -0.000000
LeftFoot -11.147134 19.333069 -4.195223
LeftToeBase -14.278363 -0.000000 0.000000
RightUpLeg -128.651621 -21.395447 27.605926
RightLeg 106.063196 -0.000000 -0.000000
RightFoot 41.352193 -5.251788 10.240101
RightToeBase 12.798888 -0.000000 -0.000000
239
root 4.293844 32.320931 -6.955219 -0.229148 -9.391211 -12.594002
Spine 39.521401 13.880027 17.678529
Head -34.600235 -5.951412 9.311955
LeftShoulder -19.116296 39.688688 9.893450
LeftArm 58.132097 6.356540 -78.992014
LeftForeArm 1.631440 0.000000 28.697742
LeftHand 6.757206 -0.000000 10.186899
LeftHandThumb1 -26.253704 0.000000 33.147579
RightShoulder 12.334470 9.730955 -12.767719
RightArm 27.432520 21.675139 87.954661
RightForeArm 87.929749 -0.000000 0.100765
RightHand 2.088904 -0.000000 28.736328
RightHandThumb1 -24.326973 -0.000000 -32.862282
LeftUpLeg -15.209322 -3.371940 5.189012
LeftLeg 28.698656 -0.000000 -0.000000
LeftFoot -11.131692 19.291021 -4.208430
LeftToeBase -14.475814 -0.000000 0.000000
RightUpLeg -128.944424 -21.106093 27.670769
RightLeg 106.380337 -0.000000 -0.000000
RightFoot 41.671174 -5.147904 10.285435
RightToeBase 12.970672 -0.000000 -0.000000
240
root 4.298416 32.319383 -6.966052 -0.169689 -9.493235 -12.613455
Spine 39.740472 13.967524 17.696336
Head -35.083554 -5.858555 9.287234
LeftShoulder -19.194859 39.707702 9.743545
LeftArm 58.094588 6.447350 -78.885519
LeftForeArm 1.504009 -0.000000 28.723561
LeftHand 6.796503 -0.000000 10.010320
LeftHandThumb1 -26.253704 0.000000 33.147579
RightShoulder 12.635647 9.677058 -12.731100
RightArm 27.448067 17.722849 84.756397
RightForeArm 92.995062 -0.000000 -1.555114
RightHand 1.907513 -0.000000 31.458049
RightHandThumb1 -24.326973 -0.000000 -32.862282
LeftUpLeg -15.317015 -3.256813 5.217468
LeftLeg 28.792406 -0.000000 -0.000000
LeftFoot -11.132438 19.190521 -4.337401
LeftToeBase -14.653604 -0.000000 0.000000
RightUpLeg -129.264780 -20.787697 27.640794
RightLeg 106.665962 -0.000000 -0.000000
RightFoot 41.995541 -5.156800 10.433074
RightToeBase 13.072032 -0.000000 -0.000000
241
root 4.302061 32.322627 -6.976791 -0.185554 -9.614571 -12.692483
Spine 40.039702 14.017446 17.739702
Head -35.504062 -5.656920 9.325564
LeftShoulder -19.265482 39.684877 9.667653
LeftArm 57.993449 6.561096 -78.903927
LeftForeArm 1.531158 -0.000000 28.736475
LeftHand 6.850647 0.000000 10.065394
LeftHandThumb1 -26.253704 0.000000 33.147579
RightShoulder 12.670404 9.684472 -12.752082
RightArm 27.305478 17.945164 84.098697
RightForeArm 92.755040 -0.000000 -0.824826
RightHand 2.037330 0.000000 32.874368
RightHandThumb1 -24.326973 -0.000000 -32.862282
LeftUpLeg -15.334426 -3.051564 5.300032
LeftLeg 28.880979 -0.000000 -0.000000
LeftFoot -11.103590 19.051336 -4.337525
LeftToeBase -14.580532 -0.000000 0.000000
RightUpLeg -129.423386 -20.508495 27.586615
RightLeg 106.937874 -0.000000 -0.000000
RightFoot 42.310567 -5.111449 10.577574
RightToeBase 13.437896 -0.000000 -0.000000
242
root 4.303985 32.328881 -6.988997 -0.180580 -9.743761 -12.806915
Spine 40.321742 14.037666 17.802779
Head -35.900674 -5.436769 9.295578
LeftShoulder -19.354115 39.766643 9.524516
LeftArm 57.973303 6.629596 -78.888045
LeftForeArm 1.444674 -0.000000 28.784133
LeftHand 6.824326 -0.000000 10.163277
LeftHandThumb1 -26.253704 0.000000 33.147579
RightShoulder 12.704160 9.743662 -12.826293
RightArm 27.104302 18.067642 83.475197
RightForeArm 92.346065 -0.000000 0.036075
RightHand 2.177798 -0.000000 33.953758
RightHandThumb1 -24.326973 -0.000000 -32.862282
LeftUpLeg -15.349943 -2.864040 5.417549
LeftLeg 28.934241 -0.000000 -0.000000
LeftFoot -11.035919 18.968891 -4.340802
LeftToeBase -14.855420 -0.000000 0.000000
RightUpLeg -129.542724 -20.234267 27.552507
RightLeg 107.172774 -0.000000 -0.000000
RightFoot 42.640733 -4.929594 10.521964
RightToeBase 13.501536 -0.000000 -0.000000
243
root 4.307251 32.333932 -7.002455 -0.155078 -9.875459 -12.913697
Spine 40.546419 14.010343 17.815236
Head -36.221171 -5.208393 9.242363
LeftShoulder -19.444258 39.878652 9.376757
LeftArm 57.911920 6.638512 -78.928581
LeftForeArm 1.406713 -0.000000 28.853228
LeftHand 6.853101 0.000000 10.045896
LeftHandThumb1 -26.253704 0.000000 33.147579
RightShoulder 12.800167 9.828312 -12.956968
RightArm 26.940243 18.257003 83.051718
RightForeArm 91.868670 0.000000 0.944869
RightHand 2.437162 -0.000000 34.989236
RightHandThumb1 -24.326973 -0.000000 -32.862282
LeftUpLeg -15.385109 -2.691481 5.524732
LeftLeg 28.982946 -0.000000 -0.000000
LeftFoot -10.979943 18.906629 -4.319184
LeftToeBase -15.010991 -0.000000 0.000000
RightUpLeg -129.632125 -19.952656 27.475362
RightLeg 107.415519 -0.000000 -0.000000
RightFoot 42.775948 -4.809746 10.486274
RightToeBase 13.644944 -0.000000 -0.000000
